<svg width="144" height="56" viewBox="0 0 144 56" fill="none" xmlns="http://www.w3.org/2000/svg">
<rect width="144" height="56" rx="8" fill="url(#paint0_linear_1_50)"/>
<rect x="1.05" y="1.05" width="141.9" height="53.9" rx="6.95" stroke="white" stroke-opacity="0.15" stroke-width="2.1"/>
<g filter="url(#filter0_d_1_50)">
<g clip-path="url(#clip0_1_50)">
<path d="M26.8803 38.6625C26.8803 38.6625 25.3906 39.5294 27.9419 39.8219C31.0331 40.175 32.6128 40.1244 36.0184 39.4806C36.0184 39.4806 36.9156 40.0416 38.1663 40.5278C30.5291 43.7997 20.8825 40.3381 26.8803 38.6625ZM25.9466 34.3922C25.9466 34.3922 24.2753 35.6294 26.8288 35.8938C30.1309 36.2347 32.7381 36.2625 37.2519 35.3938C37.2519 35.3938 37.8747 36.0266 38.8556 36.3722C29.6238 39.0722 19.3413 36.5847 25.9466 34.3922Z" fill="#0074BD"/>
<path d="M33.8131 27.1472C35.6959 29.3144 33.3194 31.2628 33.3194 31.2628C33.3194 31.2628 38.0972 28.7969 35.9034 25.7075C33.8537 22.8278 32.2825 21.3975 40.7894 16.4637C40.7894 16.4641 27.4359 19.7981 33.8131 27.1472Z" fill="#EA5F2D"/>
<path d="M43.9134 41.8216C43.9134 41.8216 45.0163 42.7309 42.6984 43.4338C38.2916 44.7688 24.3528 45.1712 20.4816 43.4872C19.0906 42.8816 21.7 42.0419 22.5209 41.8647C23.3769 41.6794 23.8656 41.7131 23.8656 41.7131C22.3178 40.6234 13.8616 43.8537 19.5709 44.7803C35.14 47.3041 47.9513 43.6437 43.9134 41.8216ZM27.5975 29.9669C27.5975 29.9669 20.5081 31.6509 25.0872 32.2631C27.0209 32.5219 30.8741 32.4625 34.4656 32.1612C37.4 31.9147 40.3447 31.3881 40.3447 31.3881C40.3447 31.3881 39.3109 31.8316 38.5622 32.3422C31.3616 34.2362 17.4547 33.3541 21.4587 31.4178C24.8437 29.7806 27.5975 29.9669 27.5975 29.9669ZM40.3153 37.0753C47.6344 33.2731 44.25 29.6191 41.8878 30.1112C41.3103 30.2316 41.0513 30.3362 41.0513 30.3362C41.0513 30.3362 41.2663 29.9991 41.6763 29.8541C46.3491 28.2119 49.9422 34.6987 40.1691 37.2681C40.1691 37.2675 40.2813 37.1659 40.3153 37.0753Z" fill="#0074BD"/>
<path d="M35.9034 8.49594C35.9034 8.49594 39.9559 12.5509 32.0587 18.7844C25.7256 23.7863 30.6147 26.6375 32.0566 29.8966C28.3594 26.5613 25.6475 23.6247 27.4666 20.8919C30.1378 16.8813 37.5381 14.9359 35.9034 8.49594Z" fill="#EA5F2D"/>
<path d="M28.3169 47.3816C35.3406 47.8306 46.1294 47.1316 46.3847 43.8078C46.3847 43.8078 45.8937 45.0678 40.5794 46.0675C34.5837 47.1963 27.1875 47.0647 22.8022 46.3406C22.8022 46.3409 23.7006 47.0847 28.3169 47.3816Z" fill="#0074BD"/>
</g>
</g>
<g filter="url(#filter1_d_1_50)">
<path d="M61.2784 24.5V12.8636H65.5398C66.3655 12.8636 67.0492 13 67.5909 13.2727C68.1326 13.5417 68.5379 13.9072 68.8068 14.3693C69.0757 14.8276 69.2102 15.3447 69.2102 15.9204C69.2102 16.4053 69.1212 16.8144 68.9432 17.1477C68.7651 17.4773 68.5265 17.7424 68.2273 17.9432C67.9318 18.1401 67.606 18.2841 67.25 18.375V18.4886C67.6363 18.5076 68.0132 18.6326 68.3807 18.8636C68.7519 19.0909 69.0587 19.4148 69.3011 19.8352C69.5435 20.2557 69.6648 20.767 69.6648 21.3693C69.6648 21.964 69.5246 22.4981 69.2443 22.9716C68.9678 23.4413 68.5398 23.8144 67.9602 24.0909C67.3807 24.3636 66.6401 24.5 65.7386 24.5H61.2784ZM63.0341 22.9943H65.5682C66.4091 22.9943 67.0113 22.8314 67.375 22.5057C67.7386 22.1799 67.9204 21.7727 67.9204 21.2841C67.9204 20.9167 67.8276 20.5795 67.642 20.2727C67.4564 19.9659 67.1913 19.7216 66.8466 19.5398C66.5057 19.3579 66.1004 19.267 65.6307 19.267H63.0341V22.9943ZM63.0341 17.8977H65.3863C65.7803 17.8977 66.1345 17.822 66.4488 17.6704C66.767 17.5189 67.0189 17.3068 67.2045 17.0341C67.3939 16.7576 67.4886 16.4318 67.4886 16.0568C67.4886 15.5758 67.3201 15.1723 66.9829 14.8466C66.6458 14.5208 66.1288 14.3579 65.4318 14.3579H63.0341V17.8977ZM77.1392 20.8807V15.7727H78.8437V24.5H77.1733V22.9886H77.0824C76.8816 23.4545 76.5596 23.8428 76.1165 24.1534C75.6771 24.4602 75.1297 24.6136 74.4744 24.6136C73.9138 24.6136 73.4176 24.4905 72.9858 24.2443C72.5577 23.9943 72.2206 23.625 71.9744 23.1364C71.732 22.6477 71.6108 22.0436 71.6108 21.3239V15.7727H73.3096V21.1193C73.3096 21.714 73.4744 22.1875 73.804 22.5398C74.1335 22.892 74.5615 23.0682 75.088 23.0682C75.4062 23.0682 75.7225 22.9886 76.0369 22.8295C76.3551 22.6704 76.6184 22.4299 76.8267 22.1079C77.0388 21.786 77.143 21.3769 77.1392 20.8807ZM81.1264 24.5V15.7727H82.8253V24.5H81.1264ZM81.9844 14.4261C81.6889 14.4261 81.4351 14.3276 81.223 14.1307C81.0147 13.9299 80.9105 13.6913 80.9105 13.4148C80.9105 13.1345 81.0147 12.8958 81.223 12.6989C81.4351 12.4981 81.6889 12.3977 81.9844 12.3977C82.2798 12.3977 82.5317 12.4981 82.74 12.6989C82.9522 12.8958 83.0582 13.1345 83.0582 13.4148C83.0582 13.6913 82.9522 13.9299 82.74 14.1307C82.5317 14.3276 82.2798 14.4261 81.9844 14.4261ZM86.8096 12.8636V24.5H85.1108V12.8636H86.8096ZM93.169 15.7727V17.1364H88.402V15.7727H93.169ZM89.6804 13.6818H91.3792V21.9375C91.3792 22.267 91.4285 22.5151 91.527 22.6818C91.6254 22.8447 91.7523 22.9564 91.9076 23.017C92.0667 23.0739 92.2391 23.1023 92.4247 23.1023C92.5611 23.1023 92.6804 23.0928 92.7826 23.0739C92.8849 23.0549 92.9645 23.0398 93.0213 23.0284L93.3281 24.4318C93.2296 24.4697 93.0895 24.5076 92.9076 24.5454C92.7258 24.5871 92.4986 24.6098 92.2258 24.6136C91.7789 24.6212 91.3622 24.5417 90.9758 24.375C90.5895 24.2083 90.277 23.9508 90.0383 23.6023C89.7997 23.2538 89.6804 22.8163 89.6804 22.2898V13.6818ZM101.175 24.5L98.6065 15.7727H100.362L102.072 22.1818H102.158L103.874 15.7727H105.629L107.334 22.1534H107.419L109.118 15.7727H110.874L108.311 24.5H106.578L104.805 18.1989H104.675L102.902 24.5H101.175ZM112.486 24.5V15.7727H114.185V24.5H112.486ZM113.344 14.4261C113.048 14.4261 112.794 14.3276 112.582 14.1307C112.374 13.9299 112.27 13.6913 112.27 13.4148C112.27 13.1345 112.374 12.8958 112.582 12.6989C112.794 12.4981 113.048 12.3977 113.344 12.3977C113.639 12.3977 113.891 12.4981 114.099 12.6989C114.312 12.8958 114.418 13.1345 114.418 13.4148C114.418 13.6913 114.312 13.9299 114.099 14.1307C113.891 14.3276 113.639 14.4261 113.344 14.4261ZM120.544 15.7727V17.1364H115.777V15.7727H120.544ZM117.055 13.6818H118.754V21.9375C118.754 22.267 118.803 22.5151 118.902 22.6818C119 22.8447 119.127 22.9564 119.283 23.017C119.442 23.0739 119.614 23.1023 119.8 23.1023C119.936 23.1023 120.055 23.0928 120.158 23.0739C120.26 23.0549 120.339 23.0398 120.396 23.0284L120.703 24.4318C120.605 24.4697 120.464 24.5076 120.283 24.5454C120.101 24.5871 119.874 24.6098 119.601 24.6136C119.154 24.6212 118.737 24.5417 118.351 24.375C117.964 24.2083 117.652 23.9508 117.413 23.6023C117.175 23.2538 117.055 22.8163 117.055 22.2898V13.6818ZM124.31 19.3182V24.5H122.611V12.8636H124.287V17.1932H124.395C124.599 16.7235 124.912 16.3504 125.332 16.0739C125.753 15.7973 126.302 15.6591 126.98 15.6591C127.579 15.6591 128.101 15.7822 128.548 16.0284C128.999 16.2746 129.348 16.642 129.594 17.1307C129.844 17.6155 129.969 18.2216 129.969 18.9489V24.5H128.27V19.1534C128.27 18.5133 128.105 18.017 127.776 17.6648C127.446 17.3087 126.988 17.1307 126.401 17.1307C125.999 17.1307 125.639 17.2159 125.321 17.3864C125.007 17.5568 124.758 17.8068 124.577 18.1364C124.399 18.4621 124.31 18.8561 124.31 19.3182Z" fill="#E8E8E8"/>
<path d="M65.9584 31.1364H68.9045V39.6846C68.9004 40.4855 68.7093 41.1858 68.3309 41.7855C67.9526 42.3811 67.4294 42.844 66.7613 43.174C66.0973 43.504 65.3286 43.669 64.4552 43.669C63.6825 43.669 62.9802 43.5342 62.3484 43.2645C61.7205 42.9949 61.2194 42.5763 60.8452 42.0089C60.4749 41.4414 60.2918 40.715 60.2958 39.8295H63.272C63.2841 40.1475 63.3444 40.4191 63.4531 40.6445C63.5658 40.8659 63.7207 41.0329 63.918 41.1456C64.1152 41.2583 64.3506 41.3146 64.6243 41.3146C64.91 41.3146 65.1515 41.2542 65.3487 41.1335C65.5459 41.0087 65.6948 40.8256 65.7954 40.5842C65.9001 40.3427 65.9544 40.0428 65.9584 39.6846V31.1364ZM73.3944 43.6569C72.8028 43.6569 72.2776 43.5583 71.8188 43.3611C71.364 43.1599 71.0038 42.8581 70.7382 42.4556C70.4766 42.0491 70.3458 41.54 70.3458 40.9283C70.3458 40.4131 70.4363 39.9784 70.6174 39.6243C70.7985 39.2701 71.0481 38.9824 71.366 38.761C71.684 38.5396 72.0502 38.3726 72.4647 38.2599C72.8793 38.1432 73.322 38.0647 73.7929 38.0245C74.3201 37.9762 74.7447 37.9259 75.0667 37.8736C75.3886 37.8172 75.6221 37.7387 75.7669 37.6381C75.9158 37.5335 75.9903 37.3866 75.9903 37.1974V37.1672C75.9903 36.8574 75.8837 36.6179 75.6703 36.4489C75.457 36.2798 75.1693 36.1953 74.8071 36.1953C74.4167 36.1953 74.1028 36.2798 73.8653 36.4489C73.6279 36.6179 73.4769 36.8513 73.4125 37.1491L70.6899 37.0525C70.7704 36.4891 70.9776 35.986 71.3117 35.5433C71.6498 35.0966 72.1126 34.7464 72.7002 34.4929C73.2918 34.2353 74.0021 34.1065 74.8312 34.1065C75.4228 34.1065 75.9682 34.177 76.4672 34.3178C76.9663 34.4547 77.4009 34.6559 77.7712 34.9215C78.1415 35.1831 78.4272 35.5051 78.6284 35.8874C78.8337 36.2698 78.9363 36.7064 78.9363 37.1974V43.5H76.1593V42.2081H76.0869C75.9219 42.522 75.7106 42.7876 75.453 43.005C75.1995 43.2223 74.8996 43.3853 74.5535 43.494C74.2114 43.6026 73.8251 43.6569 73.3944 43.6569ZM74.306 41.7251C74.6239 41.7251 74.9097 41.6607 75.1632 41.5319C75.4208 41.4032 75.6261 41.2261 75.779 41.0007C75.9319 40.7713 76.0084 40.5057 76.0084 40.2038V39.3224C75.9239 39.3667 75.8213 39.4069 75.7005 39.4432C75.5838 39.4794 75.455 39.5136 75.3142 39.5458C75.1733 39.578 75.0284 39.6062 74.8795 39.6303C74.7306 39.6545 74.5877 39.6766 74.4509 39.6967C74.1732 39.741 73.9357 39.8094 73.7385 39.902C73.5453 39.9945 73.3964 40.1153 73.2918 40.2642C73.1912 40.4091 73.1409 40.5821 73.1409 40.7834C73.1409 41.0892 73.2495 41.3227 73.4669 41.4837C73.6882 41.6446 73.9679 41.7251 74.306 41.7251ZM89.4044 34.2273L86.2229 43.5H82.8422L79.6668 34.2273H82.7758L84.4843 40.6143H84.5809L86.2953 34.2273H89.4044ZM92.9013 43.6569C92.3096 43.6569 91.7844 43.5583 91.3256 43.3611C90.8708 43.1599 90.5106 42.8581 90.245 42.4556C89.9834 42.0491 89.8526 41.54 89.8526 40.9283C89.8526 40.4131 89.9432 39.9784 90.1243 39.6243C90.3054 39.2701 90.5549 38.9824 90.8728 38.761C91.1908 38.5396 91.557 38.3726 91.9716 38.2599C92.3861 38.1432 92.8288 38.0647 93.2997 38.0245C93.8269 37.9762 94.2515 37.9259 94.5735 37.8736C94.8955 37.8172 95.1289 37.7387 95.2738 37.6381C95.4227 37.5335 95.4971 37.3866 95.4971 37.1974V37.1672C95.4971 36.8574 95.3905 36.6179 95.1772 36.4489C94.9639 36.2798 94.6761 36.1953 94.3139 36.1953C93.9235 36.1953 93.6096 36.2798 93.3721 36.4489C93.1347 36.6179 92.9838 36.8513 92.9194 37.1491L90.1967 37.0525C90.2772 36.4891 90.4845 35.986 90.8185 35.5433C91.1566 35.0966 91.6194 34.7464 92.207 34.4929C92.7986 34.2353 93.509 34.1065 94.338 34.1065C94.9297 34.1065 95.475 34.177 95.9741 34.3178C96.4731 34.4547 96.9078 34.6559 97.278 34.9215C97.6483 35.1831 97.934 35.5051 98.1353 35.8874C98.3405 36.2698 98.4432 36.7064 98.4432 37.1974V43.5H95.6662V42.2081H95.5937C95.4287 42.522 95.2174 42.7876 94.9598 43.005C94.7063 43.2223 94.4065 43.3853 94.0603 43.494C93.7183 43.6026 93.3319 43.6569 92.9013 43.6569ZM93.8128 41.7251C94.1308 41.7251 94.4165 41.6607 94.6701 41.5319C94.9276 41.4032 95.1329 41.2261 95.2858 41.0007C95.4388 40.7713 95.5152 40.5057 95.5152 40.2038V39.3224C95.4307 39.3667 95.3281 39.4069 95.2074 39.4432C95.0906 39.4794 94.9619 39.5136 94.821 39.5458C94.6801 39.578 94.5352 39.6062 94.3863 39.6303C94.2374 39.6545 94.0946 39.6766 93.9577 39.6967C93.68 39.741 93.4426 39.8094 93.2454 39.902C93.0522 39.9945 92.9033 40.1153 92.7986 40.2642C92.698 40.4091 92.6477 40.5821 92.6477 40.7834C92.6477 41.0892 92.7564 41.3227 92.9737 41.4837C93.1951 41.6446 93.4748 41.7251 93.8128 41.7251ZM103.876 43.5V41.3508L108.386 37.4027C108.724 37.0968 109.012 36.8171 109.249 36.5636C109.487 36.306 109.668 36.0484 109.793 35.7908C109.917 35.5292 109.98 35.2455 109.98 34.9396C109.98 34.5975 109.905 34.3057 109.756 34.0643C109.607 33.8188 109.402 33.6296 109.141 33.4968C108.879 33.364 108.579 33.2976 108.241 33.2976C107.899 33.2976 107.599 33.368 107.342 33.5089C107.084 33.6457 106.883 33.8449 106.738 34.1065C106.597 34.3681 106.527 34.6861 106.527 35.0604H103.695C103.695 34.2192 103.884 33.4928 104.263 32.881C104.641 32.2693 105.172 31.7984 105.857 31.4684C106.545 31.1343 107.344 30.9673 108.253 30.9673C109.191 30.9673 110.006 31.1243 110.698 31.4382C111.39 31.7521 111.926 32.1908 112.304 32.7543C112.686 33.3137 112.877 33.9637 112.877 34.7042C112.877 35.1751 112.783 35.6419 112.594 36.1047C112.405 36.5676 112.064 37.0787 111.573 37.6381C111.086 38.1976 110.394 38.8677 109.497 39.6484L108.018 41.0128V41.0913H113.028V43.5H103.876ZM120.434 31.1364V43.5H117.452V33.9254H117.379L114.615 35.6158V33.032L117.663 31.1364H120.434Z" fill="#F27121"/>
</g>
<defs>
<filter id="filter0_d_1_50" x="6.28571" y="2.28571" width="51.4286" height="51.4286" filterUnits="userSpaceOnUse" color-interpolation-filters="sRGB">
<feFlood flood-opacity="0" result="BackgroundImageFix"/>
<feColorMatrix in="SourceAlpha" type="matrix" values="0 0 0 0 0 0 0 0 0 0 0 0 0 0 0 0 0 0 127 0" result="hardAlpha"/>
<feOffset/>
<feGaussianBlur stdDeviation="2.85714"/>
<feComposite in2="hardAlpha" operator="out"/>
<feColorMatrix type="matrix" values="0 0 0 0 0 0 0 0 0 0 0 0 0 0 0 0 0 0 0.25 0"/>
<feBlend mode="normal" in2="BackgroundImageFix" result="effect1_dropShadow_1_50"/>
<feBlend mode="normal" in="SourceGraphic" in2="effect1_dropShadow_1_50" result="shape"/>
</filter>
<filter id="filter1_d_1_50" x="54.4" y="3.9" width="83.2" height="48.2" filterUnits="userSpaceOnUse" color-interpolation-filters="sRGB">
<feFlood flood-opacity="0" result="BackgroundImageFix"/>
<feColorMatrix in="SourceAlpha" type="matrix" values="0 0 0 0 0 0 0 0 0 0 0 0 0 0 0 0 0 0 127 0" result="hardAlpha"/>
<feOffset/>
<feGaussianBlur stdDeviation="2.8"/>
<feComposite in2="hardAlpha" operator="out"/>
<feColorMatrix type="matrix" values="0 0 0 0 0 0 0 0 0 0 0 0 0 0 0 0 0 0 0.25 0"/>
<feBlend mode="normal" in2="BackgroundImageFix" result="effect1_dropShadow_1_50"/>
<feBlend mode="normal" in="SourceGraphic" in2="effect1_dropShadow_1_50" result="shape"/>
</filter>
<linearGradient id="paint0_linear_1_50" x1="72" y1="0" x2="72" y2="56" gradientUnits="userSpaceOnUse">
<stop stop-color="#723C0C"/>
<stop offset="1" stop-color="#0C1821"/>
</linearGradient>
<clipPath id="clip0_1_50">
<rect width="40" height="40" fill="white" transform="translate(12 8)"/>
</clipPath>
</defs>
</svg>
