<!--
  - NavAuth
  - Copyright © 2026 Oliwier Fijas (Navio1430)
  -
  - NavAuth is free software; You can redistribute it and/or modify it under the terms of:
  - the GNU Affero General Public License version 3 as published by the Free Software Foundation.
  -
  - NavAuth is distributed in the hope that it will be useful,
  - but WITHOUT ANY WARRANTY; without even the implied warranty of
  - MERCHANTABILITY or FITNESS FOR A PARTICULAR PURPOSE. See the
  - GNU Affero General Public License for more details.
  -
  - You should have received a copy of the GNU Affero General Public License
  - along with NavAuth. If not, see <https://www.gnu.org/licenses/>
  - and navigate to version 3 of the GNU Affero General Public License.
  -
  -->

<svg width="145" height="56" viewBox="0 0 145 56" fill="none" xmlns="http://www.w3.org/2000/svg">
<rect width="145" height="56" rx="8" fill="url(#paint0_linear_1_50)"/>
<rect x="1.05" y="1.05" width="142.9" height="53.9" rx="6.95" stroke="white" stroke-opacity="0.15" stroke-width="2.1"/>
<g filter="url(#filter0_d_1_50)">
<g clip-path="url(#clip0_1_50)">
<path d="M26.8803 38.6625C26.8803 38.6625 25.3906 39.5294 27.9419 39.8219C31.0331 40.175 32.6128 40.1244 36.0184 39.4806C36.0184 39.4806 36.9156 40.0416 38.1663 40.5278C30.5291 43.7997 20.8825 40.3381 26.8803 38.6625ZM25.9466 34.3922C25.9466 34.3922 24.2753 35.6294 26.8288 35.8938C30.1309 36.2347 32.7381 36.2625 37.2519 35.3938C37.2519 35.3938 37.8747 36.0266 38.8556 36.3722C29.6238 39.0722 19.3413 36.5847 25.9466 34.3922Z" fill="#0074BD"/>
<path d="M33.8131 27.1472C35.6959 29.3144 33.3194 31.2628 33.3194 31.2628C33.3194 31.2628 38.0972 28.7969 35.9034 25.7075C33.8537 22.8278 32.2825 21.3975 40.7894 16.4637C40.7894 16.4641 27.4359 19.7981 33.8131 27.1472Z" fill="#EA5F2D"/>
<path d="M43.9134 41.8216C43.9134 41.8216 45.0163 42.7309 42.6984 43.4338C38.2916 44.7688 24.3528 45.1713 20.4816 43.4872C19.0906 42.8816 21.7 42.0419 22.5209 41.8647C23.3769 41.6794 23.8656 41.7131 23.8656 41.7131C22.3178 40.6234 13.8616 43.8538 19.5709 44.7803C35.14 47.3041 47.9513 43.6437 43.9134 41.8216ZM27.5975 29.9669C27.5975 29.9669 20.5081 31.6509 25.0872 32.2631C27.0209 32.5219 30.8741 32.4625 34.4656 32.1612C37.4 31.9147 40.3447 31.3881 40.3447 31.3881C40.3447 31.3881 39.3109 31.8316 38.5622 32.3422C31.3616 34.2362 17.4547 33.3541 21.4587 31.4178C24.8437 29.7806 27.5975 29.9669 27.5975 29.9669ZM40.3153 37.0753C47.6344 33.2731 44.25 29.6191 41.8878 30.1112C41.3103 30.2316 41.0513 30.3362 41.0513 30.3362C41.0513 30.3362 41.2663 29.9991 41.6763 29.8541C46.3491 28.2119 49.9422 34.6987 40.1691 37.2681C40.1691 37.2675 40.2813 37.1659 40.3153 37.0753Z" fill="#0074BD"/>
<path d="M35.9034 8.49594C35.9034 8.49594 39.9559 12.5509 32.0587 18.7844C25.7256 23.7863 30.6147 26.6375 32.0566 29.8966C28.3594 26.5613 25.6475 23.6247 27.4666 20.8919C30.1378 16.8813 37.5381 14.9359 35.9034 8.49594Z" fill="#EA5F2D"/>
<path d="M28.3169 47.3816C35.3406 47.8306 46.1294 47.1316 46.3847 43.8078C46.3847 43.8078 45.8937 45.0678 40.5794 46.0675C34.5837 47.1963 27.1875 47.0647 22.8022 46.3406C22.8022 46.3409 23.7006 47.0847 28.3169 47.3816Z" fill="#0074BD"/>
</g>
</g>
<g filter="url(#filter1_d_1_50)">
<path d="M61.2784 24.5V12.8636H65.4261C66.3276 12.8636 67.0757 13.0189 67.6704 13.3295C68.2689 13.6401 68.7159 14.0701 69.0113 14.6193C69.3068 15.1648 69.4545 15.7954 69.4545 16.5114C69.4545 17.2235 69.3049 17.8504 69.0057 18.392C68.7102 18.9299 68.2632 19.3485 67.6648 19.6477C67.0701 19.947 66.322 20.0966 65.4204 20.0966H62.2784V18.5852H65.2613C65.8295 18.5852 66.2916 18.5038 66.6477 18.3409C67.0076 18.178 67.2708 17.9413 67.4375 17.6307C67.6041 17.3201 67.6875 16.947 67.6875 16.5114C67.6875 16.072 67.6023 15.6913 67.4318 15.3693C67.2651 15.0473 67.0019 14.8011 66.642 14.6307C66.286 14.4564 65.8182 14.3693 65.2386 14.3693H63.0341V24.5H61.2784ZM67.0227 19.25L69.8977 24.5H67.8977L65.0795 19.25H67.0227ZM75.1065 24.6761C74.2467 24.6761 73.5061 24.4924 72.8849 24.125C72.2675 23.7538 71.7902 23.2329 71.4531 22.5625C71.1198 21.8883 70.9531 21.0985 70.9531 20.1932C70.9531 19.2992 71.1198 18.5114 71.4531 17.8295C71.7902 17.1477 72.2599 16.6155 72.8622 16.2329C73.4683 15.8504 74.1766 15.6591 74.9872 15.6591C75.4796 15.6591 75.9569 15.7405 76.419 15.9034C76.8811 16.0663 77.2959 16.322 77.6633 16.6704C78.0308 17.0189 78.3205 17.4716 78.5327 18.0284C78.7448 18.5814 78.8508 19.2538 78.8508 20.0454V20.6477H71.9133V19.375H77.1861C77.1861 18.928 77.0952 18.5322 76.9133 18.1875C76.7315 17.839 76.4758 17.5644 76.1463 17.3636C75.8205 17.1629 75.438 17.0625 74.9986 17.0625C74.5213 17.0625 74.1046 17.1799 73.7486 17.4148C73.3963 17.6458 73.1236 17.9489 72.9304 18.3239C72.741 18.6951 72.6463 19.0985 72.6463 19.5341V20.5284C72.6463 21.1117 72.7486 21.6079 72.9531 22.017C73.1614 22.4261 73.4512 22.7386 73.8224 22.9545C74.1936 23.1667 74.6273 23.2727 75.1236 23.2727C75.4455 23.2727 75.7391 23.2273 76.0042 23.1364C76.2694 23.0417 76.4986 22.9015 76.6917 22.7159C76.8849 22.5303 77.0327 22.3011 77.1349 22.0284L78.7429 22.3182C78.6141 22.7917 78.383 23.2064 78.0497 23.5625C77.7202 23.9148 77.3054 24.1894 76.8054 24.3864C76.3092 24.5795 75.7429 24.6761 75.1065 24.6761ZM83.2755 24.6932C82.7225 24.6932 82.2225 24.5909 81.7755 24.3864C81.3286 24.178 80.9744 23.8769 80.713 23.4829C80.4555 23.089 80.3267 22.6061 80.3267 22.0341C80.3267 21.5417 80.4214 21.1364 80.6108 20.8182C80.8002 20.5 81.0558 20.2481 81.3778 20.0625C81.6998 19.8769 82.0596 19.7367 82.4574 19.642C82.8551 19.5473 83.2604 19.4754 83.6733 19.4261C84.196 19.3655 84.6202 19.3163 84.946 19.2784C85.2718 19.2367 85.5085 19.1704 85.6562 19.0795C85.804 18.9886 85.8778 18.8409 85.8778 18.6364V18.5966C85.8778 18.1004 85.7377 17.7159 85.4574 17.4432C85.1808 17.1704 84.768 17.0341 84.2187 17.0341C83.6468 17.0341 83.196 17.161 82.8665 17.4148C82.5407 17.6648 82.3153 17.9432 82.1903 18.25L80.5937 17.8864C80.7831 17.3561 81.0596 16.928 81.4233 16.6023C81.7907 16.2727 82.213 16.0341 82.6903 15.8864C83.1676 15.7348 83.6695 15.6591 84.196 15.6591C84.5445 15.6591 84.9138 15.7008 85.304 15.7841C85.6979 15.8636 86.0653 16.0114 86.4062 16.2273C86.7509 16.4432 87.0331 16.7519 87.2528 17.1534C87.4725 17.5511 87.5824 18.0682 87.5824 18.7045V24.5H85.9233V23.3068H85.8551C85.7452 23.5265 85.5805 23.7424 85.3608 23.9545C85.1411 24.1667 84.8589 24.3428 84.5142 24.4829C84.1695 24.6231 83.7566 24.6932 83.2755 24.6932ZM83.6449 23.3295C84.1146 23.3295 84.5161 23.2367 84.8494 23.0511C85.1865 22.8655 85.4422 22.6231 85.6165 22.3239C85.7945 22.0208 85.8835 21.697 85.8835 21.3523V20.2273C85.8229 20.2879 85.7055 20.3447 85.5312 20.3977C85.3608 20.447 85.1657 20.4905 84.946 20.5284C84.7263 20.5625 84.5123 20.5947 84.304 20.625C84.0956 20.6515 83.9214 20.6742 83.7812 20.6932C83.4517 20.7348 83.1505 20.8049 82.8778 20.9034C82.6089 21.0019 82.393 21.1439 82.2301 21.3295C82.071 21.5114 81.9915 21.7538 81.9915 22.0568C81.9915 22.4773 82.1468 22.7954 82.4574 23.0114C82.768 23.2235 83.1638 23.3295 83.6449 23.3295ZM93.1122 24.6704C92.4076 24.6704 91.7789 24.4905 91.2258 24.1307C90.6766 23.767 90.2448 23.25 89.9304 22.5795C89.6198 21.9053 89.4645 21.0966 89.4645 20.1534C89.4645 19.2102 89.6217 18.4034 89.9361 17.7329C90.2542 17.0625 90.6898 16.5492 91.2429 16.1932C91.7959 15.8371 92.4228 15.6591 93.1236 15.6591C93.6652 15.6591 94.1008 15.75 94.4304 15.9318C94.7637 16.1098 95.0213 16.3182 95.2031 16.5568C95.3887 16.7954 95.5326 17.0057 95.6349 17.1875H95.7372V12.8636H97.4361V24.5H95.777V23.142H95.6349C95.5326 23.3276 95.3849 23.5398 95.1917 23.7784C95.0023 24.017 94.741 24.2254 94.4076 24.4034C94.0743 24.5814 93.6425 24.6704 93.1122 24.6704ZM93.4872 23.2216C93.9758 23.2216 94.3887 23.0928 94.7258 22.8352C95.0667 22.5739 95.3243 22.2121 95.4986 21.75C95.6766 21.2879 95.7656 20.75 95.7656 20.1364C95.7656 19.5303 95.6785 19 95.5042 18.5454C95.33 18.0909 95.0743 17.7367 94.7372 17.4829C94.4001 17.2292 93.9834 17.1023 93.4872 17.1023C92.9758 17.1023 92.5497 17.2348 92.2088 17.5C91.8679 17.7651 91.6103 18.1269 91.4361 18.5852C91.2656 19.0436 91.1804 19.5606 91.1804 20.1364C91.1804 20.7197 91.2675 21.2443 91.4417 21.7102C91.616 22.1761 91.8736 22.5454 92.2145 22.8182C92.5592 23.0871 92.9834 23.2216 93.4872 23.2216ZM108.169 15.7727V17.1364H103.402V15.7727H108.169ZM104.68 13.6818H106.379V21.9375C106.379 22.267 106.428 22.5151 106.527 22.6818C106.625 22.8447 106.752 22.9564 106.908 23.017C107.067 23.0739 107.239 23.1023 107.425 23.1023C107.561 23.1023 107.68 23.0928 107.783 23.0739C107.885 23.0549 107.964 23.0398 108.021 23.0284L108.328 24.4318C108.23 24.4697 108.089 24.5076 107.908 24.5454C107.726 24.5871 107.499 24.6098 107.226 24.6136C106.779 24.6212 106.362 24.5417 105.976 24.375C105.589 24.2083 105.277 23.9508 105.038 23.6023C104.8 23.2538 104.68 22.8163 104.68 22.2898V13.6818ZM111.935 19.3182V24.5H110.236V12.8636H111.912V17.1932H112.02C112.224 16.7235 112.537 16.3504 112.957 16.0739C113.378 15.7973 113.927 15.6591 114.605 15.6591C115.204 15.6591 115.726 15.7822 116.173 16.0284C116.624 16.2746 116.973 16.642 117.219 17.1307C117.469 17.6155 117.594 18.2216 117.594 18.9489V24.5H115.895V19.1534C115.895 18.5133 115.73 18.017 115.401 17.6648C115.071 17.3087 114.613 17.1307 114.026 17.1307C113.624 17.1307 113.264 17.2159 112.946 17.3864C112.632 17.5568 112.383 17.8068 112.202 18.1364C112.024 18.4621 111.935 18.8561 111.935 19.3182ZM123.622 24.6761C122.762 24.6761 122.022 24.4924 121.401 24.125C120.783 23.7538 120.306 23.2329 119.969 22.5625C119.635 21.8883 119.469 21.0985 119.469 20.1932C119.469 19.2992 119.635 18.5114 119.969 17.8295C120.306 17.1477 120.776 16.6155 121.378 16.2329C121.984 15.8504 122.692 15.6591 123.503 15.6591C123.995 15.6591 124.473 15.7405 124.935 15.9034C125.397 16.0663 125.812 16.322 126.179 16.6704C126.546 17.0189 126.836 17.4716 127.048 18.0284C127.26 18.5814 127.366 19.2538 127.366 20.0454V20.6477H120.429V19.375H125.702C125.702 18.928 125.611 18.5322 125.429 18.1875C125.247 17.839 124.991 17.5644 124.662 17.3636C124.336 17.1629 123.954 17.0625 123.514 17.0625C123.037 17.0625 122.62 17.1799 122.264 17.4148C121.912 17.6458 121.639 17.9489 121.446 18.3239C121.257 18.6951 121.162 19.0985 121.162 19.5341V20.5284C121.162 21.1117 121.264 21.6079 121.469 22.017C121.677 22.4261 121.967 22.7386 122.338 22.9545C122.709 23.1667 123.143 23.2727 123.639 23.2727C123.961 23.2727 124.255 23.2273 124.52 23.1364C124.785 23.0417 125.014 22.9015 125.207 22.7159C125.401 22.5303 125.548 22.3011 125.651 22.0284L127.258 22.3182C127.13 22.7917 126.899 23.2064 126.565 23.5625C126.236 23.9148 125.821 24.1894 125.321 24.3864C124.825 24.5795 124.258 24.6761 123.622 24.6761Z" fill="#E8E8E8"/>
<path d="M65.9584 31.1364H68.9045V39.6846C68.9004 40.4855 68.7093 41.1858 68.3309 41.7855C67.9526 42.3811 67.4294 42.844 66.7613 43.174C66.0973 43.504 65.3286 43.669 64.4552 43.669C63.6825 43.669 62.9802 43.5342 62.3484 43.2645C61.7205 42.9949 61.2194 42.5763 60.8452 42.0089C60.4749 41.4414 60.2918 40.715 60.2958 39.8295H63.272C63.2841 40.1475 63.3444 40.4191 63.4531 40.6445C63.5658 40.8659 63.7207 41.0329 63.918 41.1456C64.1152 41.2583 64.3506 41.3146 64.6243 41.3146C64.91 41.3146 65.1515 41.2542 65.3487 41.1335C65.5459 41.0087 65.6948 40.8256 65.7954 40.5842C65.9001 40.3427 65.9544 40.0428 65.9584 39.6846V31.1364ZM73.3944 43.6569C72.8028 43.6569 72.2776 43.5583 71.8188 43.3611C71.364 43.1599 71.0038 42.8581 70.7382 42.4556C70.4766 42.0491 70.3458 41.54 70.3458 40.9283C70.3458 40.4131 70.4363 39.9784 70.6174 39.6243C70.7985 39.2701 71.0481 38.9824 71.366 38.761C71.684 38.5396 72.0502 38.3726 72.4647 38.2599C72.8793 38.1432 73.322 38.0647 73.7929 38.0245C74.3201 37.9762 74.7447 37.9259 75.0667 37.8736C75.3886 37.8172 75.6221 37.7387 75.7669 37.6381C75.9158 37.5335 75.9903 37.3866 75.9903 37.1974V37.1672C75.9903 36.8574 75.8837 36.6179 75.6703 36.4489C75.457 36.2798 75.1693 36.1953 74.8071 36.1953C74.4167 36.1953 74.1028 36.2798 73.8653 36.4489C73.6279 36.6179 73.4769 36.8513 73.4125 37.1491L70.6899 37.0525C70.7704 36.4891 70.9776 35.986 71.3117 35.5433C71.6498 35.0966 72.1126 34.7464 72.7002 34.4929C73.2918 34.2353 74.0021 34.1065 74.8312 34.1065C75.4228 34.1065 75.9682 34.177 76.4672 34.3178C76.9663 34.4547 77.4009 34.6559 77.7712 34.9215C78.1415 35.1831 78.4272 35.5051 78.6284 35.8874C78.8337 36.2698 78.9363 36.7064 78.9363 37.1974V43.5H76.1593V42.2081H76.0869C75.9219 42.522 75.7106 42.7876 75.453 43.005C75.1995 43.2223 74.8996 43.3853 74.5535 43.494C74.2114 43.6026 73.8251 43.6569 73.3944 43.6569ZM74.306 41.7251C74.6239 41.7251 74.9097 41.6607 75.1632 41.5319C75.4208 41.4032 75.6261 41.2261 75.779 41.0007C75.9319 40.7713 76.0084 40.5057 76.0084 40.2038V39.3224C75.9239 39.3667 75.8213 39.4069 75.7005 39.4432C75.5838 39.4794 75.455 39.5136 75.3142 39.5458C75.1733 39.578 75.0284 39.6062 74.8795 39.6303C74.7306 39.6545 74.5877 39.6766 74.4509 39.6967C74.1732 39.741 73.9357 39.8094 73.7385 39.902C73.5453 39.9945 73.3964 40.1153 73.2918 40.2642C73.1912 40.4091 73.1409 40.5821 73.1409 40.7834C73.1409 41.0892 73.2495 41.3227 73.4669 41.4837C73.6882 41.6446 73.9679 41.7251 74.306 41.7251ZM89.4044 34.2273L86.2229 43.5H82.8422L79.6668 34.2273H82.7758L84.4843 40.6143H84.5809L86.2953 34.2273H89.4044ZM92.9013 43.6569C92.3096 43.6569 91.7844 43.5583 91.3256 43.3611C90.8708 43.1599 90.5106 42.8581 90.245 42.4556C89.9834 42.0491 89.8526 41.54 89.8526 40.9283C89.8526 40.4131 89.9432 39.9784 90.1243 39.6243C90.3054 39.2701 90.5549 38.9824 90.8728 38.761C91.1908 38.5396 91.557 38.3726 91.9716 38.2599C92.3861 38.1432 92.8288 38.0647 93.2997 38.0245C93.8269 37.9762 94.2515 37.9259 94.5735 37.8736C94.8955 37.8172 95.1289 37.7387 95.2738 37.6381C95.4227 37.5335 95.4971 37.3866 95.4971 37.1974V37.1672C95.4971 36.8574 95.3905 36.6179 95.1772 36.4489C94.9639 36.2798 94.6761 36.1953 94.3139 36.1953C93.9235 36.1953 93.6096 36.2798 93.3721 36.4489C93.1347 36.6179 92.9838 36.8513 92.9194 37.1491L90.1967 37.0525C90.2772 36.4891 90.4845 35.986 90.8185 35.5433C91.1566 35.0966 91.6194 34.7464 92.207 34.4929C92.7986 34.2353 93.509 34.1065 94.338 34.1065C94.9297 34.1065 95.475 34.177 95.9741 34.3178C96.4731 34.4547 96.9078 34.6559 97.278 34.9215C97.6483 35.1831 97.934 35.5051 98.1353 35.8874C98.3405 36.2698 98.4432 36.7064 98.4432 37.1974V43.5H95.6662V42.2081H95.5937C95.4287 42.522 95.2174 42.7876 94.9598 43.005C94.7063 43.2223 94.4065 43.3853 94.0603 43.494C93.7183 43.6026 93.3319 43.6569 92.9013 43.6569ZM93.8128 41.7251C94.1308 41.7251 94.4165 41.6607 94.6701 41.5319C94.9276 41.4032 95.1329 41.2261 95.2858 41.0007C95.4388 40.7713 95.5152 40.5057 95.5152 40.2038V39.3224C95.4307 39.3667 95.3281 39.4069 95.2074 39.4432C95.0906 39.4794 94.9619 39.5136 94.821 39.5458C94.6801 39.578 94.5352 39.6062 94.3863 39.6303C94.2374 39.6545 94.0946 39.6766 93.9577 39.6967C93.68 39.741 93.4426 39.8094 93.2454 39.902C93.0522 39.9945 92.9033 40.1153 92.7986 40.2642C92.698 40.4091 92.6477 40.5821 92.6477 40.7834C92.6477 41.0892 92.7564 41.3227 92.9737 41.4837C93.1951 41.6446 93.4748 41.7251 93.8128 41.7251ZM104.818 43.5H100.248V31.1364H104.812C106.072 31.1364 107.156 31.3839 108.066 31.8789C108.98 32.3699 109.684 33.0782 110.179 34.0039C110.674 34.9255 110.921 36.0283 110.921 37.3121C110.921 38.6 110.674 39.7068 110.179 40.6324C109.688 41.5581 108.986 42.2685 108.072 42.7635C107.158 43.2545 106.074 43.5 104.818 43.5ZM103.236 40.9524H104.703C105.396 40.9524 105.981 40.8357 106.46 40.6023C106.943 40.3648 107.307 39.9805 107.553 39.4492C107.802 38.9139 107.927 38.2016 107.927 37.3121C107.927 36.4227 107.802 35.7144 107.553 35.1871C107.303 34.6559 106.935 34.2735 106.448 34.0401C105.965 33.8027 105.37 33.6839 104.661 33.6839H103.236V40.9524ZM116.995 43.6751C116.021 43.6751 115.184 43.4758 114.483 43.0774C113.787 42.6749 113.25 42.1155 112.871 41.3991C112.497 40.6787 112.31 39.8436 112.31 38.8938C112.31 37.94 112.497 37.1049 112.871 36.3885C113.25 35.6681 113.787 35.1087 114.483 34.7102C115.184 34.3078 116.021 34.1065 116.995 34.1065C117.969 34.1065 118.804 34.3078 119.5 34.7102C120.2 35.1087 120.738 35.6681 121.112 36.3885C121.49 37.1049 121.679 37.94 121.679 38.8938C121.679 39.8436 121.49 40.6787 121.112 41.3991C120.738 42.1155 120.2 42.6749 119.5 43.0774C118.804 43.4758 117.969 43.6751 116.995 43.6751ZM117.013 41.4474C117.367 41.4474 117.667 41.3388 117.912 41.1214C118.158 40.9041 118.345 40.6023 118.474 40.2159C118.607 39.8295 118.673 39.3828 118.673 38.8757C118.673 38.3605 118.607 37.9098 118.474 37.5234C118.345 37.1371 118.158 36.8352 117.912 36.6179C117.667 36.4006 117.367 36.2919 117.013 36.2919C116.647 36.2919 116.337 36.4006 116.083 36.6179C115.834 36.8352 115.642 37.1371 115.51 37.5234C115.381 37.9098 115.316 38.3605 115.316 38.8757C115.316 39.3828 115.381 39.8295 115.51 40.2159C115.642 40.6023 115.834 40.9041 116.083 41.1214C116.337 41.3388 116.647 41.4474 117.013 41.4474ZM127.52 43.6751C126.542 43.6751 125.703 43.4738 125.003 43.0714C124.306 42.6689 123.771 42.1095 123.397 41.3931C123.023 40.6727 122.835 39.8396 122.835 38.8938C122.835 37.944 123.023 37.1109 123.397 36.3945C123.775 35.6741 124.312 35.1127 125.009 34.7102C125.709 34.3078 126.544 34.1065 127.514 34.1065C128.371 34.1065 129.118 34.2615 129.754 34.5714C130.394 34.8813 130.893 35.3199 131.251 35.8874C131.613 36.4509 131.804 37.1129 131.824 37.8736H129.065C129.009 37.3987 128.848 37.0264 128.583 36.7567C128.321 36.4871 127.979 36.3523 127.556 36.3523C127.214 36.3523 126.914 36.4489 126.657 36.642C126.399 36.8312 126.198 37.1129 126.053 37.4872C125.912 37.8575 125.842 38.3163 125.842 38.8636C125.842 39.411 125.912 39.8738 126.053 40.2521C126.198 40.6264 126.399 40.9101 126.657 41.1033C126.914 41.2925 127.214 41.3871 127.556 41.3871C127.83 41.3871 128.071 41.3287 128.281 41.212C128.494 41.0953 128.669 40.9242 128.806 40.6989C128.943 40.4694 129.029 40.1918 129.065 39.8658H131.824C131.796 40.6304 131.605 41.2985 131.251 41.87C130.901 42.4415 130.408 42.8862 129.772 43.2042C129.14 43.5181 128.389 43.6751 127.52 43.6751Z" fill="#FAAC7C"/>
</g>
<defs>
<filter id="filter0_d_1_50" x="6.28571" y="2.28571" width="51.4286" height="51.4286" filterUnits="userSpaceOnUse" color-interpolation-filters="sRGB">
<feFlood flood-opacity="0" result="BackgroundImageFix"/>
<feColorMatrix in="SourceAlpha" type="matrix" values="0 0 0 0 0 0 0 0 0 0 0 0 0 0 0 0 0 0 127 0" result="hardAlpha"/>
<feOffset/>
<feGaussianBlur stdDeviation="2.85714"/>
<feComposite in2="hardAlpha" operator="out"/>
<feColorMatrix type="matrix" values="0 0 0 0 0 0 0 0 0 0 0 0 0 0 0 0 0 0 0.25 0"/>
<feBlend mode="normal" in2="BackgroundImageFix" result="effect1_dropShadow_1_50"/>
<feBlend mode="normal" in="SourceGraphic" in2="effect1_dropShadow_1_50" result="shape"/>
</filter>
<filter id="filter1_d_1_50" x="54.4" y="3.9" width="84.2" height="48.2" filterUnits="userSpaceOnUse" color-interpolation-filters="sRGB">
<feFlood flood-opacity="0" result="BackgroundImageFix"/>
<feColorMatrix in="SourceAlpha" type="matrix" values="0 0 0 0 0 0 0 0 0 0 0 0 0 0 0 0 0 0 127 0" result="hardAlpha"/>
<feOffset/>
<feGaussianBlur stdDeviation="2.8"/>
<feComposite in2="hardAlpha" operator="out"/>
<feColorMatrix type="matrix" values="0 0 0 0 0 0 0 0 0 0 0 0 0 0 0 0 0 0 0.25 0"/>
<feBlend mode="normal" in2="BackgroundImageFix" result="effect1_dropShadow_1_50"/>
<feBlend mode="normal" in="SourceGraphic" in2="effect1_dropShadow_1_50" result="shape"/>
</filter>
<linearGradient id="paint0_linear_1_50" x1="72.5" y1="0" x2="72.5" y2="56" gradientUnits="userSpaceOnUse">
<stop stop-color="#D4AC89"/>
<stop offset="1" stop-color="#0C1821"/>
</linearGradient>
<clipPath id="clip0_1_50">
<rect width="40" height="40" fill="white" transform="translate(12 8)"/>
</clipPath>
</defs>
</svg>
