<?xml version="1.0" encoding="UTF-8" standalone="no"?><!--
  - NavAuth
  - Copyright © 2025 Oliwier Fijas (Navio1430)
  -
  - NavAuth is free software; You can redistribute it and/or modify it under the terms of:
  - the GNU Affero General Public License version 3 as published by the Free Software Foundation.
  -
  - NavAuth is distributed in the hope that it will be useful,
  - but WITHOUT ANY WARRANTY; without even the implied warranty of
  - MERCHANTABILITY or FITNESS FOR A PARTICULAR PURPOSE. See the
  - GNU Affero General Public License for more details.
  -
  - You should have received a copy of the GNU Affero General Public License
  - along with NavAuth. If not, see <https://www.gnu.org/licenses/>
  - and navigate to version 3 of the GNU Affero General Public License.
  -
  -->

<!DOCTYPE svg PUBLIC "-//W3C//DTD SVG 1.1//EN" "http://www.w3.org/Graphics/SVG/1.1/DTD/svg11.dtd"><svg width="100%" height="100%" viewBox="0 0 1012 1017" version="1.1" xmlns="http://www.w3.org/2000/svg" xmlns:xlink="http://www.w3.org/1999/xlink" xml:space="preserve" xmlns:serif="http://www.serif.com/" style="fill-rule:evenodd;clip-rule:evenodd;stroke-linejoin:round;stroke-miterlimit:2;"><path d="M278.682,665.375c-55.334,-125.201 -102.139,-253.163 -150.766,-381.346c2.739,-0.236 4.791,-0.562 6.844,-0.567c52.541,-0.124 105.083,-0.134 157.623,-0.429c5.393,-0.03 8.001,1.411 10.117,6.656c28.37,70.333 57.023,140.552 85.625,210.792c0.9,2.21 2.018,4.332 3.918,8.377c1.998,-4.196 3.381,-6.813 4.519,-9.533c28.794,-68.848 57.703,-137.649 86.134,-206.647c3.108,-7.542 6.78,-9.809 14.822,-9.739c49.621,0.429 99.248,0.218 148.873,0.219c2.655,0 5.31,-0 9.158,-0c-1.135,3.187 -1.867,5.622 -2.852,7.951c-61.444,145.319 -122.936,290.617 -184.254,435.989c-2.105,4.99 -4.509,6.879 -10.057,6.852c-47.921,-0.234 -95.844,-0.245 -143.765,0.012c-5.616,0.03 -8.048,-1.951 -10.055,-6.875c-8.349,-20.483 -17.088,-40.807 -25.882,-61.71Z" style="fill:#ff7620;fill-rule:nonzero;"/><path d="M732.567,593.832c-18.517,44.234 -36.939,87.902 -54.984,131.725c-2.589,6.288 -5.751,8.554 -12.741,8.506c-50.362,-0.346 -100.727,-0.185 -151.091,-0.185l-8.917,0c6.67,-15.793 12.869,-30.495 19.086,-45.191c46.687,-110.357 93.375,-220.714 140.067,-331.069c9.756,-23.057 19.633,-46.063 29.199,-69.198c1.655,-4.002 3.745,-5.297 8.028,-5.283c48.661,0.152 97.322,0.183 145.982,-0.036c4.874,-0.022 6.619,1.996 8.298,5.989c23.17,55.117 46.473,110.178 69.767,165.243c18.276,43.204 36.589,86.394 54.869,129.597c0.918,2.17 1.676,4.409 2.752,7.263c-2.079,0.326 -3.424,0.847 -4.683,0.689c-35.504,-4.444 -64.124,20.435 -64.647,56.317c-0.113,7.754 -0.016,15.51 -0.016,23.669c-2.049,0.356 -3.628,0.818 -5.222,0.876c-11.072,0.409 -12.148,1.449 -12.156,12.231c-0.011,15.991 -0.003,31.983 -0.003,48.881c-11.205,0 -21.6,0.246 -31.962,-0.227c-1.865,-0.085 -4.415,-2.79 -5.266,-4.855c-14.91,-36.174 -29.609,-72.435 -44.344,-108.681c-14.37,-35.349 -28.722,-70.705 -43.115,-106.045c-0.614,-1.508 -1.56,-2.881 -3.079,-5.638c-12.206,29.107 -23.906,57.006 -35.82,85.421Z" style="fill:#5de1e6;fill-rule:nonzero;"/><path d="M8.31,701.732c34.403,-125.713 68.711,-250.834 103.019,-375.954c0.519,-0.049 1.039,-0.097 1.558,-0.146c4.197,10.971 8.411,21.936 12.587,32.916c24.78,65.157 49.481,130.344 74.433,195.435c2.473,6.452 2.973,12.29 1.108,19.008c-13.895,50.058 -27.483,100.201 -41.173,150.315c-2.927,10.716 -2.939,10.713 -14.241,10.713c-45.737,0 -91.475,0 -137.212,0l-8.388,0c2.863,-11.046 5.539,-21.37 8.31,-32.288Z" style="fill:#ff7620;fill-rule:nonzero;"/><path d="M987.944,609.897c2.34,2.366 4.821,4.208 5.918,6.666c5.636,12.634 11.354,25.266 16.104,38.243c1.899,5.186 1.388,11.254 2.034,17.496c-28.345,0 -55.449,0 -82.554,0.006c-6.868,-21.491 -0.48,-45.684 15.523,-58.106c13.171,-10.223 27.455,-11.095 42.976,-4.306Z" style="fill:#5ee1e6;fill-rule:nonzero;"/><path d="M983.276,715.727c1.01,3.905 2.323,7.396 2.221,10.846c-0.146,4.924 -2.65,7.95 -8.41,7.42c-4.798,-0.442 -9.67,-0.048 -14.508,-0.102c-6.571,-0.073 -10.008,-4.161 -8.705,-10.771c1.277,-6.482 4.303,-11.79 11.146,-13.963c7.507,-2.384 13.125,0.667 18.257,6.57Z" style="fill:#63e2e7;fill-rule:nonzero;"/></svg>