<?xml version="1.0" encoding="UTF-8"?>
<svg version="1.1" xmlns="http://www.w3.org/2000/svg" width="1012" height="1017">
<path d="M0 0 C333.96 0 667.92 0 1012 0 C1012 335.61 1012 671.22 1012 1017 C678.04 1017 344.08 1017 0 1017 C0 681.39 0 345.78 0 0 Z " fill="#FEFEFE" transform="translate(0,0)"/>
<path d="M0 0 C38.94 0 77.88 0 118 0 C120.29325367 5.15982076 122.52573484 10.19576434 124.55078125 15.44140625 C125.22246338 17.17088501 125.22246338 17.17088501 125.90771484 18.93530273 C126.37129395 20.13227783 126.83487305 21.32925293 127.3125 22.5625 C130.61748732 31.05714939 133.9934556 39.50013148 137.71801758 47.82080078 C139.88633749 52.67799513 141.80822441 57.60189745 143.68359375 62.578125 C145.5357098 67.39252755 147.51250813 72.15281685 149.48657227 76.91821289 C150.99541997 80.56106694 152.49074502 84.20689998 153.9375 87.875 C156.16611486 93.49456763 158.54419064 99.05209376 160.91967773 104.61083984 C162.83187303 109.11554438 164.64576746 113.64643881 166.390625 118.21875 C169.55057394 126.49642258 172.94400345 134.67576444 176.33398438 142.86132812 C176.80771484 144.01439453 177.28144531 145.16746094 177.76953125 146.35546875 C178.41305542 147.91237427 178.41305542 147.91237427 179.06958008 149.50073242 C180 152 180 152 180 154 C180.66 154 181.32 154 182 154 C182.08765625 153.18789063 182.1753125 152.37578125 182.265625 151.5390625 C183.17734341 147.14535569 184.86541895 143.42823498 186.75 139.375 C189.98956363 132.31025932 193.04082422 125.1868822 196 118 C196.45407227 116.89978516 196.90814453 115.79957031 197.37597656 114.66601562 C198.33420542 112.34387477 199.29212502 110.02160629 200.24975586 107.69921875 C204.41418619 97.60428722 208.60442415 87.52412744 212.9375 77.5 C215.71806327 71.06708977 218.35533411 64.60881748 220.8203125 58.046875 C222.57913891 53.50421075 224.52406851 49.04597049 226.47265625 44.58203125 C227.62025483 41.8906044 228.72182112 39.19670272 229.796875 36.4765625 C232.45950994 29.78170254 235.33226463 23.17674312 238.1875 16.5625 C239.26572722 14.06440074 240.34230945 11.56561467 241.41796875 9.06640625 C241.89000732 7.97271729 242.3620459 6.87902832 242.84838867 5.75219727 C244.04620173 2.98552148 244.04620173 2.98552148 245 0 C283.28 0 321.56 0 361 0 C361 1.65 361 3.3 361 5 C359.515 5.495 359.515 5.495 358 6 C357.9175 6.99 357.835 7.98 357.75 9 C357.22200564 12.79543775 355.78651773 15.65912962 353.98046875 19.00390625 C353.01261368 20.97432035 352.41749068 22.81527646 351.875 24.9375 C351.58625 25.948125 351.2975 26.95875 351 28 C350.34 28.33 349.68 28.66 349 29 C348.33762461 30.87560678 348.33762461 30.87560678 347.8125 33.1875 C346.53804778 37.73261277 344.72300321 41.81905769 342.5625 46 C339.69591125 51.56748303 337.18770404 57.13297552 335 63 C334.51072414 64.29699103 334.02111303 65.59385562 333.53125 66.890625 C332.50433648 69.61542341 331.48196688 72.34184475 330.46484375 75.0703125 C330.10495361 76.0279248 330.10495361 76.0279248 329.73779297 77.00488281 C329.21792119 78.41070417 328.71309602 79.82213512 328.21923828 81.23730469 C326.21237478 86.89381261 326.21237478 86.89381261 324 88 C323.12959326 89.85383663 323.12959326 89.85383663 322.4140625 92.12109375 C321.98009155 93.39484863 321.98009155 93.39484863 321.53735352 94.69433594 C321.23627686 95.59958008 320.9352002 96.50482422 320.625 97.4375 C320.00296807 99.26489086 319.37928648 101.09172106 318.75390625 102.91796875 C318.45371582 103.79630371 318.15352539 104.67463867 317.84423828 105.57958984 C316.37894847 109.7805393 314.73534628 113.90415164 313 118 C312.34 118 311.68 118 311 118 C310.608125 119.216875 310.21625 120.43375 309.8125 121.6875 C308.12664353 126.75302155 306.20724171 131.71625542 304.2734375 136.69140625 C302.44716881 141.43634362 300.7166423 146.21449996 299 151 C298.34 151 297.68 151 297 151 C296.81824219 151.61746094 296.63648438 152.23492187 296.44921875 152.87109375 C295.6439535 155.58421822 294.82491302 158.29278546 294 161 C293.73703125 161.86882812 293.4740625 162.73765625 293.203125 163.6328125 C292.95046875 164.43460938 292.6978125 165.23640625 292.4375 166.0625 C292.20933594 166.79597656 291.98117187 167.52945313 291.74609375 168.28515625 C291 170 291 170 289 171 C288.26628529 173.00923103 288.26628529 173.00923103 287.6875 175.4375 C286.37713004 180.07976543 284.55716202 184.09209976 282.328125 188.35546875 C280.37709932 192.24030518 278.7590789 196.24638741 277.1171875 200.26953125 C276.27868279 202.31888366 275.39929507 204.35158609 274.5 206.375 C272.56895664 211.04168811 270.98206212 215.80935242 269.37890625 220.59765625 C267.95798362 224.10367213 266.13432384 226.89073811 264 230 C263.31526605 232.32809543 262.65146849 234.66237777 262 237 C260.77053045 239.80252824 259.46899728 242.56600579 258.16796875 245.3359375 C257.17349468 247.60426966 256.42750086 249.73387666 255.8125 252.125 C255.544375 253.07375 255.27625 254.0225 255 255 C254.34 255.33 253.68 255.66 253 256 C251.97617998 258.38691177 251.05959682 260.74534759 250.1875 263.1875 C249.92614258 263.89914307 249.66478516 264.61078613 249.39550781 265.34399414 C248.08369014 268.93082166 246.8113327 272.53007767 245.56640625 276.140625 C245.34380127 276.78104736 245.12119629 277.42146973 244.8918457 278.08129883 C244.27946125 279.85229884 243.67849953 281.62723638 243.078125 283.40234375 C242 286 242 286 240 287 C238.91626071 289.5532662 237.93313558 292.0798018 237 294.6875 C236.73960937 295.39583984 236.47921875 296.10417969 236.2109375 296.83398438 C234.73522507 300.86983427 233.35970469 304.92088594 232 309 C195.7 309 159.4 309 122 309 C118 298 118 298 117 294 C116.34 293.67 115.68 293.34 115 293 C114.1180841 290.77629125 113.31827603 288.51968254 112.5625 286.25 C111.07234761 281.78421416 109.44822312 278.00618329 107 274 C106.65421232 272.00211562 106.31856451 270.00240549 106 268 C105.34 267.67 104.68 267.34 104 267 C103.15601492 264.92409283 102.40031766 262.81202168 101.6875 260.6875 C98.93821544 252.6890215 96.02095889 244.74162881 92.0625 237.25 C88.73699024 230.80012019 86.49797614 223.8026127 84 217 C81.40601755 209.97782858 78.70613921 203.19021489 75.2578125 196.54296875 C73.37247266 192.73130341 71.79880943 188.80241269 70.2109375 184.859375 C69.38883196 182.91814516 68.49324083 181.00675203 67.53515625 179.12890625 C65.78176311 175.55519656 64.41415158 171.92694986 63.0625 168.1875 C61.51023313 163.89889208 59.88799125 159.68882693 58 155.53515625 C56.03836657 151.1851236 54.45846679 146.76962082 52.9375 142.25 C50.12378477 134.06486278 47.15599976 125.9421222 44.09622192 117.84631348 C43.39359102 115.9867037 42.6946694 114.12569374 41.99584961 112.26464844 C40.01689342 107.05101861 38.00262769 101.91330294 35.6015625 96.87890625 C32.9631683 91.19557768 30.96823975 85.34260786 28.93583679 79.42391968 C25.25928883 68.75888761 21.25175364 58.22006516 17.2565918 47.67114258 C15.93305476 44.17576039 14.61372012 40.67881314 13.29492188 37.18164062 C9.30546967 26.62026955 5.30636799 16.07537689 0.96313477 5.65356445 C0 3 0 3 0 0 Z " fill="#FF7520" transform="translate(229,347)"/>
<path d="M0 0 C35.97 0 71.94 0 109 0 C113 11 113 11 113 14 C113.99 14.33 114.98 14.66 116 15 C116.74147705 17.31064941 117.39577879 19.64972223 118 22 C118.92187618 24.26518147 119.88127476 26.51540542 120.875 28.75 C123.16831998 33.96005997 125.22260222 39.20305407 127.04296875 44.59765625 C128.10681969 47.26813921 129.51848266 49.53817516 131 52 C132.01360753 54.21371885 132.99054957 56.44445826 133.9375 58.6875 C134.19909912 59.30544434 134.46069824 59.92338867 134.73022461 60.56005859 C136.54342435 64.8606179 138.29429749 69.18394509 140.01171875 73.5234375 C142.92286652 80.8185667 146.01255944 88.0389991 149.125 95.25 C150.70147049 98.91368526 152.25474251 102.56663306 153.625 106.3125 C154.92123058 109.78875475 156.37012986 113.13427554 157.8984375 116.51171875 C159.15127139 119.34170169 160.32580009 122.19903704 161.5 125.0625 C162.89687429 128.43969913 164.32523938 131.75177477 166 135 C169.27047775 141.37089065 171.84106251 148.06643191 174.4765625 154.71875 C174.9842476 156.00005049 175.49206102 157.28130014 176 158.5625 C176.25233398 159.19897461 176.50466797 159.83544922 176.76464844 160.49121094 C178.65145488 165.21429785 180.70863392 169.83631118 182.84765625 174.44921875 C184.35839226 177.79332252 185.69690555 181.19492771 187.0390625 184.609375 C187.95591221 186.89031819 188.92944333 189.13308196 189.9375 191.375 C191.57476919 195.0278715 193.17898705 198.6930767 194.75 202.375 C195.39195312 203.87160156 195.39195312 203.87160156 196.046875 205.3984375 C197 208 197 208 197 211 C195.91203125 211.01417969 194.8240625 211.02835938 193.703125 211.04296875 C180.7261068 211.38813373 170.5336313 213.60652145 160.90234375 222.9765625 C160.27457031 223.64429688 159.64679688 224.31203125 159 225 C158.48566406 225.54398438 157.97132813 226.08796875 157.44140625 226.6484375 C148.62702988 237.37215949 150.30017594 253.95146794 150 267 C149.37351562 267.06058594 148.74703125 267.12117188 148.1015625 267.18359375 C146.87566406 267.30927734 146.87566406 267.30927734 145.625 267.4375 C144.81289063 267.51871094 144.00078125 267.59992188 143.1640625 267.68359375 C140.95727195 267.89090114 140.95727195 267.89090114 139 269 C138.67 282.2 138.34 295.4 138 309 C130.08 309 122.16 309 114 309 C110.77900772 302.20012741 108.07059332 295.54009193 105.89453125 288.3359375 C105.23960392 285.83840819 105.23960392 285.83840819 103 285 C101.94182478 282.2793991 100.97622891 279.58130573 100.0625 276.8125 C98.66913109 272.63239326 97.3221689 268.62871299 95.30859375 264.69921875 C94 262 94 262 94 258 C93.34 258 92.68 258 92 258 C91.76925781 257.35675781 91.53851562 256.71351563 91.30078125 256.05078125 C88.96201074 249.57063054 86.50650107 243.14882196 83.953125 236.75 C83 234 83 234 83 231 C82.34 231 81.68 231 81 231 C80.43732422 229.47632813 80.43732422 229.47632813 79.86328125 227.921875 C79.34689254 226.53104999 78.82992404 225.14044017 78.3125 223.75 C78.04356934 223.02651367 77.77463867 222.30302734 77.49755859 221.55761719 C75.45766772 216.11390605 73.24287512 210.76697668 70.8828125 205.453125 C70 203 70 203 70 199 C69.34 199 68.68 199 68 199 C67.78085937 198.3915625 67.56171875 197.783125 67.3359375 197.15625 C66.23087746 194.10161249 65.11586316 191.05070847 64 188 C63.75910645 187.33645508 63.51821289 186.67291016 63.27001953 185.98925781 C62.49774905 183.86588316 61.7182198 181.74528088 60.9375 179.625 C60.56987549 178.60889648 60.56987549 178.60889648 60.19482422 177.57226562 C58.78756564 173.77313811 57.11434892 170.44405277 55 167 C54.67 165.824375 54.34 164.64875 54 163.4375 C53.0504725 160.17349921 52.08183606 158.58532358 50 156 C48.85340673 159.1038865 47.70785685 162.20815706 46.5625 165.3125 C46.23701172 166.19357422 45.91152344 167.07464844 45.57617188 167.98242188 C45.10727539 169.25375977 45.10727539 169.25375977 44.62890625 170.55078125 C44.34088135 171.33106689 44.05285645 172.11135254 43.75610352 172.9152832 C43.14472037 174.60097925 42.56704149 176.29887553 42 178 C41.34 178 40.68 178 40 178 C39.608125 179.19625 39.21625 180.3925 38.8125 181.625 C37.40010144 185.84211419 35.96327808 190.05025929 34.5 194.25 C34.0978125 195.41015625 33.695625 196.5703125 33.28125 197.765625 C32.09378771 200.76324322 30.68877578 203.26643493 29 206 C28.31647308 207.5463822 27.67012918 209.10975042 27.0625 210.6875 C26.72476563 211.55117188 26.38703125 212.41484375 26.0390625 213.3046875 C25.52472656 214.63886719 25.52472656 214.63886719 25 216 C21.39987696 225.33866503 21.39987696 225.33866503 19.375 228.6875 C17.96664293 231.05610053 17.34749304 233.26681254 16.66015625 235.91796875 C15.5179233 239.52039576 13.82229395 242.8790573 12.23046875 246.30078125 C9.32108473 252.68295382 7.17405058 259.33907907 5 266 C4.34 266 3.68 266 3 266 C2.79697266 266.804375 2.79697266 266.804375 2.58984375 267.625 C0.84188949 273.98880951 -1.60857839 279.87116012 -4.29980469 285.87597656 C-6.72086191 291.2945332 -8.88817286 296.7640963 -10.95703125 302.328125 C-12 305 -12 305 -14 309 C-51.95 309 -89.9 309 -129 309 C-129 303.39837398 -129 303.39837398 -127.375 300.0625 C-125.54713716 296.17507339 -123.80878289 292.26495878 -122.125 288.3125 C-121.61195313 287.11367188 -121.09890625 285.91484375 -120.5703125 284.6796875 C-119.54073934 282.26969531 -118.51557118 279.85795278 -117.4921875 277.4453125 C-115.04296528 271.68771681 -112.53865293 265.97443563 -109.875 260.3125 C-107.63169637 255.50542079 -105.74215075 250.67590214 -103.9921875 245.671875 C-102.62208294 241.98230209 -100.9497744 238.45657081 -99.2890625 234.890625 C-97.40814297 230.67280544 -95.80908571 226.3574588 -94.17578125 222.0390625 C-92.94293135 218.85249366 -91.58426972 215.75441915 -90.1640625 212.6484375 C-89.18267243 210.41561043 -88.2502302 208.17476612 -87.3359375 205.9140625 C-87.03413574 205.16930664 -86.73233398 204.42455078 -86.42138672 203.65722656 C-85.82252006 202.17386526 -85.22757011 200.68891455 -84.63720703 199.20214844 C-83.24654468 195.76396783 -81.78204334 192.50543318 -79.90234375 189.3046875 C-78.25334627 186.4401046 -77.10050358 183.86879416 -76.0625 180.75 C-74.05348784 174.99188641 -71.57073185 169.52489488 -69 164 C-67.08610101 159.69372727 -65.36082229 155.34125931 -63.6875 150.9375 C-60.98861544 143.86821626 -58.01630014 136.93913857 -55 130 C-53.1976777 125.84477653 -51.46014668 121.67489945 -49.80639648 117.45825195 C-47.73785098 112.18675348 -45.60402831 107.01525193 -42.98828125 101.98828125 C-39.81500144 95.6040938 -37.3139918 88.89986607 -34.86621094 82.21118164 C-31.69877398 73.56332758 -27.97641224 65.30197288 -24 57 C-23.24175809 55.35794745 -22.49033167 53.71270495 -21.75 52.0625 C-21.47671875 51.45535156 -21.2034375 50.84820312 -20.921875 50.22265625 C-20.14052833 48.33881618 -19.42594136 46.42750194 -18.7265625 44.51171875 C-16.6075805 38.81827241 -14.09509197 33.29769305 -11.625 27.75 C-5.36453092 14.05362283 -5.36453092 14.05362283 0 0 Z " fill="#5DE1E6" transform="translate(617,347)"/>
<path d="M0 0 C0.66 0 1.32 0 2 0 C5.14762668 6.44258907 7.71842506 12.91124582 9.91064453 19.73754883 C12.06162262 26.35638739 14.55131941 32.83657231 17.05786133 39.32763672 C18.70862415 43.60403204 20.32979291 47.88625009 21.8828125 52.19921875 C24.41351634 59.19699364 27.11621679 66.12739406 29.8125 73.0625 C30.34689511 74.43845611 30.88123716 75.81443283 31.41552734 77.19042969 C32.20939183 79.23486658 33.0033559 81.27926411 33.79785156 83.32345581 C35.297955 87.18468047 36.78878819 91.04928118 38.26953125 94.91796875 C38.59010498 95.75255615 38.91067871 96.58714355 39.2409668 97.44702148 C39.8116635 98.93373288 40.37972785 100.42145867 40.94458008 101.91040039 C42.08650414 104.87494666 43.22706574 107.34059861 45 110 C45.6373923 111.90612852 46.22303064 113.82979436 46.77734375 115.76171875 C49.02031494 123.2531802 51.74884744 130.52047412 54.5625 137.8125 C55.0492233 139.08253092 55.53555268 140.35271287 56.02148438 141.62304688 C56.49005859 142.84701172 56.95863281 144.07097656 57.44140625 145.33203125 C58.1068042 147.07734131 58.1068042 147.07734131 58.78564453 148.85791016 C59.50529323 150.71996861 60.2400239 152.57649947 61.00732422 154.41943359 C64.08370296 161.92002386 62.99660321 168.05458891 60.83984375 175.5546875 C60.61464554 176.36481293 60.38944733 177.17493835 60.15742493 178.00961304 C59.42581058 180.63383119 58.68168169 183.25432107 57.9375 185.875 C57.42784825 187.69604784 56.91906445 189.51733882 56.41113281 191.33886719 C54.95195732 196.56243199 53.4785672 201.78189501 52 207 C51.81036682 207.66946655 51.62073364 208.33893311 51.425354 209.02868652 C50.93597362 210.75612067 50.44650542 212.48352993 49.95703125 214.2109375 C49.38773412 216.22387727 48.81870643 218.23689326 48.25 220.25 C47.97800781 221.20898193 47.70601563 222.16796387 47.42578125 223.15600586 C45.258927 230.87607523 43.33978519 238.64862393 41.4375 246.4375 C35.36126779 271.27746441 35.36126779 271.27746441 31 280 C-4.31 280 -39.62 280 -76 280 C-71.40335364 260.46425298 -71.40335364 260.46425298 -69.265625 252.734375 C-69.0264888 251.8599173 -68.7873526 250.98545959 -68.54096985 250.08450317 C-67.78023129 247.3055255 -67.01522588 244.52774499 -66.25 241.75 C-65.71581956 239.80231324 -65.1818868 237.85455854 -64.64819336 235.90673828 C-63.340222 231.13617457 -62.02864203 226.36661388 -60.715271 221.59753418 C-60.05783546 219.2100317 -59.40105999 216.82234912 -58.74462891 214.43457031 C-56.17069162 205.07291898 -53.59461977 195.71181919 -50.98388672 186.36035156 C-46.58417316 170.59328986 -42.30080615 154.7942499 -38 139 C-36.41720458 133.18735335 -34.83397183 127.37482619 -33.25 121.5625 C-33.05881151 120.86076786 -32.86762302 120.15903572 -32.67064095 119.43603897 C-30.60196602 111.8447336 -28.5234685 104.25652513 -26.40234375 96.6796875 C-24.35747143 89.36695093 -22.39578016 82.0327028 -20.44140625 74.6953125 C-20.12642181 73.51322205 -19.81143738 72.33113159 -19.48690796 71.11322021 C-18.18492607 66.22458382 -16.88363169 61.33577173 -15.58666992 56.44580078 C-12.00011701 42.93065267 -8.34074979 29.46024043 -4.22973633 16.09423828 C-2.60685941 10.78198696 -1.25380307 5.41115007 0 0 Z " fill="#FF7520" transform="translate(217,376)"/>
<path d="M0 0 C5.49918414 3.27360426 7.2933448 10.14619927 9.5 15.8125 C10.03617813 17.04407074 10.57647249 18.27387968 11.125 19.5 C11.805625 21.1396875 11.805625 21.1396875 12.5 22.8125 C12.85191406 23.5446875 13.20382812 24.276875 13.56640625 25.03125 C16.95608174 32.49562251 16.5 35.71850651 16.5 44.8125 C-2.31 44.8125 -21.12 44.8125 -40.5 44.8125 C-40.5 20.8125 -40.5 20.8125 -36.5 10.8125 C-35.84 10.8125 -35.18 10.8125 -34.5 10.8125 C-34.12101563 9.91917969 -34.12101563 9.91917969 -33.734375 9.0078125 C-32.34833628 6.54276896 -31.01281766 5.36268672 -28.75 3.6875 C-28.09515625 3.18992187 -27.4403125 2.69234375 -26.765625 2.1796875 C-19.17998694 -2.39785271 -8.32229895 -3.06864691 0 0 Z " fill="#5FE1E6" transform="translate(817.5,569.1875)"/>
<path d="M0 0 C3.04636705 1.302026 3.81185703 2.25079473 6 5 C6.9177725 9.72115405 6.67991326 12.9801301 4 17 C2.12060547 17.34057617 2.12060547 17.34057617 -0.1328125 17.29296875 C-0.93847656 17.28330078 -1.74414062 17.27363281 -2.57421875 17.26367188 C-3.41597656 17.23853516 -4.25773438 17.21339844 -5.125 17.1875 C-6.39923828 17.16719727 -6.39923828 17.16719727 -7.69921875 17.14648438 C-9.79974837 17.11108219 -11.89995293 17.05727401 -14 17 C-15.36096512 12.91710465 -15.76081401 9.25906668 -15 5 C-10.86964428 -0.18942129 -6.48804412 -1.39938207 0 0 Z " fill="#64E2E7" transform="translate(810,639)"/>
<path d="M0 0 C38.28 0 76.56 0 116 0 C116 1.65 116 3.3 116 5 C115.34 5.33 114.68 5.66 114 6 C114 4.68 114 3.36 114 2 C99.44873398 2.0838482 84.897581 2.17909344 70.34647655 2.28752708 C63.59030107 2.33767111 56.83413783 2.38411376 50.07788086 2.421875 C43.56151441 2.45830583 37.04526911 2.50500886 30.52901649 2.55806351 C28.03907906 2.57664049 25.54911321 2.59173613 23.05913353 2.60334396 C19.57989222 2.62014981 16.10095636 2.64917136 12.62182617 2.68115234 C11.58532928 2.68331253 10.5488324 2.68547272 9.48092651 2.68769836 C8.06116264 2.70444359 8.06116264 2.70444359 6.61271667 2.7215271 C5.78955554 2.72705786 4.96639441 2.73258862 4.11828899 2.73828697 C1.69959666 2.87635874 1.69959666 2.87635874 -1 5 C-0.67 3.35 -0.34 1.7 0 0 Z " fill="#FF8F48" transform="translate(474,347)"/>
</svg>
